REM DIRINDEX 1\2,1\3,1\4,1\5,1\6
REM DIRNAME cjc030,folder01,folder02,folder03,folder04,folder05
TITLE ""
FILE "Disc3Track31.mp3" MP3
  TRACK 01 AUDIO
    TITLE "3:cjc030_04963"
    INDEX 01 00:00:00
  TRACK 02 AUDIO
    TITLE "0:"
    INDEX 01 00:01:01
  TRACK 03 AUDIO
    TITLE "4:cjc030_04964"
    INDEX 01 00:01:11
  TRACK 04 AUDIO
    TITLE "0:"
    INDEX 01 00:02:04
  TRACK 05 AUDIO
    TITLE "5:cjc030_04965"
    INDEX 01 00:02:14
  TRACK 06 AUDIO
    TITLE "0:"
    INDEX 01 00:03:21
  TRACK 07 AUDIO
    TITLE "6:cjc030_04966"
    INDEX 01 00:03:31
  TRACK 08 AUDIO
    TITLE "0:"
    INDEX 01 00:05:18
  TRACK 09 AUDIO
    TITLE "3:cjc030_04967"
    INDEX 01 00:05:65
  TRACK 10 AUDIO
    TITLE "0:"
    INDEX 01 00:06:71
  TRACK 11 AUDIO
    TITLE "4:cjc030_04968"
    INDEX 01 00:07:03
  TRACK 12 AUDIO
    TITLE "0:"
    INDEX 01 00:09:36
  TRACK 13 AUDIO
    TITLE "5:cjc030_04969"
    INDEX 01 00:09:42
  TRACK 14 AUDIO
    TITLE "0:"
    INDEX 01 00:10:49
  TRACK 15 AUDIO
    TITLE "3:cjc030_04970"
    INDEX 01 00:11:23
  TRACK 16 AUDIO
    TITLE "0:"
    INDEX 01 00:12:28
  TRACK 17 AUDIO
    TITLE "4:cjc030_04971"
    INDEX 01 00:12:38
  TRACK 18 AUDIO
    TITLE "0:"
    INDEX 01 00:13:37
  TRACK 19 AUDIO
    TITLE "5:cjc030_04972"
    INDEX 01 00:13:47
  TRACK 20 AUDIO
    TITLE "0:"
    INDEX 01 00:14:51
  TRACK 21 AUDIO
    TITLE "6:cjc030_04973"
    INDEX 01 00:14:66
  TRACK 22 AUDIO
    TITLE "0:"
    INDEX 01 00:18:15
  TRACK 23 AUDIO
    TITLE "3:cjc030_04974"
    INDEX 01 00:18:60
  TRACK 24 AUDIO
    TITLE "0:"
    INDEX 01 00:20:00
  TRACK 25 AUDIO
    TITLE "4:cjc030_04975"
    INDEX 01 00:20:12
  TRACK 26 AUDIO
    TITLE "0:"
    INDEX 01 00:21:19
  TRACK 27 AUDIO
    TITLE "5:cjc030_04976"
    INDEX 01 00:21:29
  TRACK 28 AUDIO
    TITLE "0:"
    INDEX 01 00:22:46
  TRACK 29 AUDIO
    TITLE "3:cjc030_04977"
    INDEX 01 00:23:26
  TRACK 30 AUDIO
    TITLE "0:"
    INDEX 01 00:24:45
  TRACK 31 AUDIO
    TITLE "4:cjc030_04978"
    INDEX 01 00:24:53
  TRACK 32 AUDIO
    TITLE "0:"
    INDEX 01 00:27:10
  TRACK 33 AUDIO
    TITLE "5:cjc030_04979"
    INDEX 01 00:27:20
  TRACK 34 AUDIO
    TITLE "0:"
    INDEX 01 00:28:39
  TRACK 35 AUDIO
    TITLE "6:cjc030_04980"
    INDEX 01 00:28:51
  TRACK 36 AUDIO
    TITLE "0:"
    INDEX 01 00:33:64
  TRACK 37 AUDIO
    TITLE "3:cjc030_04981"
    INDEX 01 00:34:38
  TRACK 38 AUDIO
    TITLE "0:"
    INDEX 01 00:35:49
  TRACK 39 AUDIO
    TITLE "4:cjc030_04982"
    INDEX 01 00:35:57
  TRACK 40 AUDIO
    TITLE "0:"
    INDEX 01 00:37:50
  TRACK 41 AUDIO
    TITLE "5:cjc030_04983"
    INDEX 01 00:37:57
  TRACK 42 AUDIO
    TITLE "0:"
    INDEX 01 00:38:69
  TRACK 43 AUDIO
    TITLE "3:cjc030_04984"
    INDEX 01 00:39:51
  TRACK 44 AUDIO
    TITLE "0:"
    INDEX 01 00:40:70
  TRACK 45 AUDIO
    TITLE "4:cjc030_04985"
    INDEX 01 00:41:04
  TRACK 46 AUDIO
    TITLE "0:"
    INDEX 01 00:42:29
  TRACK 47 AUDIO
    TITLE "5:cjc030_04986"
    INDEX 01 00:42:39
  TRACK 48 AUDIO
    TITLE "0:"
    INDEX 01 00:43:58
  TRACK 49 AUDIO
    TITLE "6:cjc030_04987"
    INDEX 01 00:43:72
  TRACK 50 AUDIO
    TITLE "0:"
    INDEX 01 00:48:53
  TRACK 51 AUDIO
    TITLE "3:cjc030_04988"
    INDEX 01 00:49:27
  TRACK 52 AUDIO
    TITLE "0:"
    INDEX 01 00:50:33
  TRACK 53 AUDIO
    TITLE "4:cjc030_04989"
    INDEX 01 00:50:42
  TRACK 54 AUDIO
    TITLE "0:"
    INDEX 01 00:51:34
  TRACK 55 AUDIO
    TITLE "5:cjc030_04990"
    INDEX 01 00:51:44
  TRACK 56 AUDIO
    TITLE "0:"
    INDEX 01 00:52:49
  TRACK 57 AUDIO
    TITLE "6:cjc030_04991"
    INDEX 01 00:52:63
  TRACK 58 AUDIO
    TITLE "0:"
    INDEX 01 00:58:18
  TRACK 59 AUDIO
    TITLE "3:cjc030_04992"
    INDEX 01 00:58:67
  TRACK 60 AUDIO
    TITLE "0:"
    INDEX 01 00:59:65
  TRACK 61 AUDIO
    TITLE "4:cjc030_04993"
    INDEX 01 01:00:00
  TRACK 62 AUDIO
    TITLE "0:"
    INDEX 01 01:03:27
  TRACK 63 AUDIO
    TITLE "5:cjc030_04994"
    INDEX 01 01:03:37
  TRACK 64 AUDIO
    TITLE "0:"
    INDEX 01 01:04:33
  TRACK 65 AUDIO
    TITLE "6:cjc030_04995"
    INDEX 01 01:04:47
  TRACK 66 AUDIO
    TITLE "0:"
    INDEX 01 01:07:47
